<svg xmlns="http://www.w3.org/2000/svg" viewBox="0 0 800 800" xml:space="preserve"><path fill="#83C9EF" d="M436.849 70.377h159.368c54.056 0 98.036 43.98 98.036 98.036v6.912c0 64.77-52.695 117.465-117.465 117.465h-18.09c-67.188 0-121.849-54.662-121.849-121.849V70.377zM105.372 168.413c0-54.056 43.98-98.036 98.036-98.036h159.368V170.94c0 67.188-54.662 121.849-121.854 121.849h-18.085c-64.77 0-117.465-52.695-117.465-117.465v-6.911z" /><path fill="#1D1751" d="m263.215 601.181-57.457-8.205-25.817-51.984c-2.932-5.906-8.847-9.571-15.44-9.571h-.05c-6.607.018-12.517 3.716-15.426 9.648l-25.557 52.107-57.416 8.487c-6.539.97-11.861 5.478-13.887 11.77-2.026 6.288-.337 13.054 4.408 17.657l41.662 40.406-9.666 57.234c-1.102 6.516 1.539 12.968 6.898 16.838a17.166 17.166 0 0 0 10.081 3.287c2.755 0 5.523-.665 8.077-2.017l51.301-27.133 51.443 26.878c5.855 3.055 12.808 2.541 18.149-1.357 5.336-3.898 7.95-10.363 6.816-16.874l-9.953-57.18 41.457-40.615c4.726-4.626 6.379-11.406 4.316-17.689-2.059-6.277-7.4-10.758-13.939-11.687zm-45.423 57.194a17.235 17.235 0 0 0-4.917 15.263l9.594 55.094-49.562-25.899a17.265 17.265 0 0 0-16.046.041l-49.43 26.145 9.311-55.131a17.248 17.248 0 0 0-4.99-15.258L71.61 619.695l55.308-8.178a17.23 17.23 0 0 0 12.968-9.462l24.624-50.204 24.87 50.072a17.219 17.219 0 0 0 13.004 9.407l55.358 7.909-39.95 39.136zM734.722 601.181l-57.457-8.205-25.817-51.984c-2.932-5.906-8.847-9.571-15.44-9.571h-.05c-6.607.018-12.517 3.716-15.426 9.648l-25.557 52.107-57.417 8.487c-6.538.97-11.861 5.478-13.887 11.77-2.026 6.288-.337 13.054 4.408 17.657l41.662 40.406-9.671 57.234c-1.102 6.511 1.539 12.968 6.894 16.838 3.019 2.181 6.539 3.287 10.09 3.287 2.75 0 5.518-.665 8.078-2.017l51.301-27.133 51.438 26.878c5.865 3.06 12.817 2.536 18.154-1.357 5.336-3.898 7.95-10.363 6.816-16.874l-9.953-57.18 41.457-40.615c4.726-4.626 6.379-11.406 4.317-17.689-2.06-6.277-7.401-10.758-13.94-11.687zm-45.414 57.184a17.222 17.222 0 0 0-4.927 15.272l9.594 55.094-49.562-25.899a17.265 17.265 0 0 0-16.046.041l-49.435 26.145 9.316-55.131a17.248 17.248 0 0 0-4.99-15.258l-40.141-38.935 55.308-8.178a17.23 17.23 0 0 0 12.968-9.462l24.624-50.204 24.87 50.072a17.219 17.219 0 0 0 13.004 9.407l55.358 7.909-39.941 39.127zM498.969 414.107l-57.457-8.205-25.817-51.984c-2.932-5.906-8.847-9.571-15.435-9.571h-.05c-6.607.018-12.521 3.716-15.431 9.648l-25.557 52.112-57.412 8.487c-6.538.965-11.861 5.473-13.887 11.766-2.031 6.293-.342 13.059 4.403 17.658l41.662 40.41-9.667 57.23c-1.102 6.516 1.539 12.968 6.894 16.838a17.17 17.17 0 0 0 10.085 3.287c2.75 0 5.518-.665 8.077-2.017l51.302-27.133 51.433 26.873c5.851 3.069 12.817 2.545 18.149-1.348 5.345-3.898 7.959-10.363 6.825-16.879l-9.953-57.18 41.457-40.615c4.722-4.626 6.379-11.401 4.321-17.68s-7.399-10.764-13.942-11.697zM453.546 471.3a17.254 17.254 0 0 0-4.918 15.267l9.594 55.09-49.562-25.899a17.253 17.253 0 0 0-16.046.041l-49.43 26.145 9.311-55.126a17.227 17.227 0 0 0-4.99-15.258l-40.137-38.935 55.322-8.178a17.252 17.252 0 0 0 12.949-9.462l24.624-50.209 24.87 50.081a17.233 17.233 0 0 0 13.004 9.398l55.358 7.909-39.949 39.136zM59.475 182.047h27.418c3.516 71.945 63.142 129.393 135.944 129.393h18.085c77.473 0 140.504-63.026 140.504-140.5v-49.935a9.549 9.549 0 0 0 3.271.584h30.229a9.535 9.535 0 0 0 3.272-.586v49.937c0 77.473 63.026 140.5 140.499 140.5h18.09c72.802 0 132.428-57.448 135.944-129.393h27.471c12.001 0 12.021-18.65 0-18.65h-27.428c-2.639-62.022-53.899-111.669-116.559-111.669H427.002a9.553 9.553 0 0 0-3.271-.584h-47.838a9.534 9.534 0 0 0-3.267.584H203.408c-62.66 0-113.92 49.648-116.559 111.669H59.474c-12-.001-12.019 18.65.001 18.65zm355.452-79.108h-30.229a9.549 9.549 0 0 0-3.271.585v-33.73h36.772v33.73a9.555 9.555 0 0 0-3.272-.585zm21.922-32.562h159.368c54.056 0 98.036 43.98 98.036 98.036v6.912c0 64.77-52.695 117.465-117.465 117.465h-18.09c-67.188 0-121.849-54.662-121.849-121.849V70.377zm-331.477 98.036c0-54.056 43.98-98.036 98.036-98.036h159.368V170.94c0 67.188-54.662 121.849-121.854 121.849h-18.085c-64.77 0-117.465-52.695-117.465-117.465v-6.911z" /><path fill="#1D1751" d="M648.303 148.239c8.376 11.912 11.667 22.568 9.869 37.046-1.476 11.881 17.187 11.774 18.65 0 2.153-17.334-2.424-32.25-12.416-46.459-6.851-9.744-23.029-.435-16.103 9.413zM640.131 122.266c12 0 12.021-18.65 0-18.65-12.001 0-12.021 18.65 0 18.65z" /><path fill="#787EBB" d="M217.792 658.375a17.235 17.235 0 0 0-4.917 15.263l9.594 55.094-49.562-25.899a17.265 17.265 0 0 0-16.046.041l-49.43 26.145 9.311-55.131a17.248 17.248 0 0 0-4.99-15.258L71.61 619.695l55.308-8.178a17.23 17.23 0 0 0 12.968-9.462l24.624-50.204 24.87 50.072a17.219 17.219 0 0 0 13.004 9.407l55.358 7.909-39.95 39.136zM453.546 471.3a17.254 17.254 0 0 0-4.918 15.267l9.594 55.09-49.562-25.899a17.253 17.253 0 0 0-16.046.041l-49.43 26.145 9.311-55.126a17.227 17.227 0 0 0-4.99-15.258l-40.137-38.935 55.322-8.178a17.252 17.252 0 0 0 12.949-9.462l24.624-50.209 24.87 50.081a17.233 17.233 0 0 0 13.004 9.398l55.358 7.909-39.949 39.136z" /><path fill="#BFC6E4" d="M689.308 658.365a17.222 17.222 0 0 0-4.927 15.272l9.594 55.094-49.562-25.899a17.265 17.265 0 0 0-16.046.041l-49.435 26.145 9.316-55.131a17.248 17.248 0 0 0-4.99-15.258l-40.141-38.935 55.308-8.178a17.23 17.23 0 0 0 12.968-9.462l24.624-50.204 24.87 50.072a17.219 17.219 0 0 0 13.004 9.407l55.358 7.909-39.941 39.127z" /></svg>